<?xml version="1.0" encoding="UTF-8"?>
<svg version="1.1" xmlns="http://www.w3.org/2000/svg" width="512" height="512">
<path d="M0 0 C0.97541748 0.00418945 1.95083496 0.00837891 2.95581055 0.01269531 C9.75828844 0.11965072 15.83560098 0.72510057 22.1875 3.3125 C22.94546875 3.60253906 23.7034375 3.89257812 24.484375 4.19140625 C38.31313646 9.88980968 49.83952158 18.74969811 57.84765625 31.4765625 C58.28980469 32.08242188 58.73195312 32.68828125 59.1875 33.3125 C59.8475 33.3125 60.5075 33.3125 61.1875 33.3125 C62.41085053 31.70835164 63.56526904 30.05144748 64.6875 28.375 C73.17747681 16.45225279 84.5971177 8.51290139 98.1875 3.3125 C98.92484375 3.01214844 99.6621875 2.71179688 100.421875 2.40234375 C116.84726126 -3.22099709 135.06288953 -0.33880149 150.4140625 6.81640625 C163.66720068 13.92241703 175.61991589 25.55978494 182 39.1875 C184.22742256 43.49143574 185.83657773 45.06984956 190.4375 46.625 C191.39011719 46.89570312 192.34273438 47.16640625 193.32421875 47.4453125 C205.94773392 51.26853265 216.80625831 62.07528903 223.1875 73.3125 C230.30440798 88.02936401 230.30440798 88.02936401 230.15234375 96.52734375 C229.68490532 105.06361561 229.68490532 105.06361561 233.0546875 112.4375 C235.51306116 113.80110788 235.51306116 113.80110788 238.234375 114.93359375 C252.75888821 121.71554238 261.05598845 137.83380177 266.99609375 151.86328125 C269.74609614 159.82476357 270.54382479 167.21759592 270.5 175.625 C270.49915405 177.14359619 270.49915405 177.14359619 270.49829102 178.69287109 C270.41847155 185.18381092 269.85494379 190.84059771 267.74609375 197.0078125 C267.05529973 199.85794167 267.25496133 201.53740907 268.1875 204.3125 C269.71300463 206.09654609 269.71300463 206.09654609 271.6875 207.6875 C283.18424066 218.64662329 289.85930757 234.65352159 290.42578125 250.40234375 C290.72842671 266.26476565 288.96257623 279.1909835 281.29858398 293.3046875 C279.83838159 296.11998574 279.04218689 297.71662485 279.80859375 300.859375 C280.26363281 301.66890625 280.71867187 302.4784375 281.1875 303.3125 C281.65027344 304.28445313 282.11304688 305.25640625 282.58984375 306.2578125 C283.60667307 308.363917 284.62745781 310.46811678 285.65234375 312.5703125 C289.4060726 321.18216308 290.74760288 329.65362153 290.6875 339 C290.68177979 340.04583252 290.67605957 341.09166504 290.67016602 342.16918945 C290.32501757 357.28018342 285.40058353 373.10772292 274.50390625 383.99609375 C270.18113515 388.82911237 270.33296792 393.12167152 270.5 399.375 C270.28491747 420.89520244 262.93724669 438.24820364 247.8125 453.74609375 C238.24545214 462.83785558 225.72596288 470.91501606 212.19140625 471.57421875 C204.23104382 471.82617847 204.23104382 471.82617847 197.51953125 475.75 C196.02990941 477.81701509 194.6031628 479.93060778 193.23828125 482.08203125 C183.89732268 496.79626503 166.50202193 506.59396183 149.9206543 510.90136719 C127.94304343 515.80421626 106.2878396 511.93385319 87.1875 500.3125 C76.69579428 493.0978006 67.30469621 483.52735973 61.1875 472.3125 C61.1875 471.6525 61.1875 470.9925 61.1875 470.3125 C60.5275 470.3125 59.8675 470.3125 59.1875 470.3125 C58.93226563 471.02792969 58.67703125 471.74335938 58.4140625 472.48046875 C50.89594285 489.83918451 33.91760912 501.11445518 17.1875 508.3125 C-1.40288177 515.60284579 -23.80450381 514.4458137 -41.9921875 506.546875 C-50.09965895 502.81644335 -57.22232774 498.38421465 -63.8125 492.3125 C-64.98039062 491.24708984 -64.98039062 491.24708984 -66.171875 490.16015625 C-70.22087561 486.29458352 -73.15630942 482.77005169 -75.875 477.875 C-78.17599842 474.41284959 -79.22730009 473.46271873 -83.3125 472.4140625 C-86.07177941 472.07339396 -88.83611131 471.89819968 -91.609375 471.7109375 C-108.10309558 470.49393979 -121.74320753 459.76239852 -132.8125 448.3125 C-145.44122024 433.24254016 -150.56521081 415.80181387 -150.04614258 396.43237305 C-150.056936 389.83645827 -151.35494567 386.80242619 -156.01489258 382.1472168 C-167.63312651 370.28913884 -170.45145346 352.07976618 -170.35595703 336.28857422 C-170.00473191 324.71634338 -167.23480224 315.25019489 -161.375 305.1875 C-159.14917673 301.50514702 -159.14917673 301.50514702 -159.125 297.3125 C-159.9603125 295.8275 -159.9603125 295.8275 -160.8125 294.3125 C-169.87350733 276.03372051 -173.55684114 255.33346827 -167.91796875 235.29296875 C-163.81058229 224.21899041 -158.24335726 214.0664549 -149.3125 206.1875 C-146.45023467 203.53088448 -146.45023467 203.53088448 -146.8125 200 C-147.32041146 198.12707651 -147.82833608 196.25415655 -148.33666992 194.38134766 C-153.44421458 173.7829205 -149.1757559 154.31308675 -138.8125 136.3125 C-133.01421106 126.88140554 -125.32679551 117.20286243 -114.6875 113.3125 C-112.37254594 112.34024996 -112.37254594 112.34024996 -110.8125 110.3125 C-110.06848375 105.82101542 -109.99433039 101.5058189 -109.9609375 96.96484375 C-109.76380008 82.2900536 -101.73998097 69.25257548 -91.74609375 59.046875 C-85.38094169 52.89537544 -75.71705642 46.28406047 -66.73046875 45.01953125 C-63.83048981 43.95049624 -63.36818184 42.11309163 -62.0625 39.375 C-52.8027808 21.41393662 -37.6503907 9.11858355 -18.8125 2.3125 C-12.4523974 0.3667454 -6.63457137 -0.03872207 0 0 Z M-36.5703125 38.671875 C-37.9772074 40.53003808 -38.40660346 42.03551941 -38.8125 44.3125 C-38.00167969 44.53164063 -37.19085938 44.75078125 -36.35546875 44.9765625 C-24.82501791 48.27864737 -11.92473227 53.13292837 -5.25 63.8125 C-4.63448153 67.32974841 -4.87177789 69.86318561 -5.8125 73.3125 C-8.54166777 76.44301597 -10.13669415 77.21420097 -14.25 77.8125 C-18.5382039 77.21064682 -20.37334677 75.92625646 -23.8125 73.3125 C-34.85131715 65.28998204 -44.26029125 63.13054324 -57.8125 64.3125 C-68.60737713 66.55420502 -76.87130799 73.07315765 -83.3046875 81.85546875 C-87.62007082 88.8875312 -89.02927054 95.18794022 -88.8125 103.3125 C-87.50796875 103.34988281 -86.2034375 103.38726562 -84.859375 103.42578125 C-62.9465187 104.18574044 -45.85106454 109.43941953 -29.82421875 125.27734375 C-21.73704691 134.0459181 -16.52243163 144.0377859 -12.8125 155.3125 C-12.565 156.04726562 -12.3175 156.78203125 -12.0625 157.5390625 C-9.90337386 165.30591902 -9.26759208 176.67777623 -11.8125 184.3125 C-14.76076763 185.29525588 -16.73902504 185.44664725 -19.8125 185.4375 C-20.67875 185.44007813 -21.545 185.44265625 -22.4375 185.4453125 C-24.8125 185.3125 -24.8125 185.3125 -27.8125 184.3125 C-29.36540842 179.5624272 -30.04346716 174.81493865 -30.75 169.875 C-33.01074783 154.99174348 -40.03301587 142.28664883 -52.16796875 133.08984375 C-64.04823212 125.10532405 -74.7630679 123.15951664 -88.8125 124.3125 C-96.43497508 125.88553436 -102.65986189 129.66877884 -108.8125 134.3125 C-109.42867187 134.75207031 -110.04484375 135.19164062 -110.6796875 135.64453125 C-116.15040479 139.86306214 -119.34908261 145.42297587 -122.8125 151.3125 C-123.33972656 152.16457031 -123.86695312 153.01664063 -124.41015625 153.89453125 C-130.34950058 164.13535058 -130.49730984 177.71108098 -127.98046875 189.06640625 C-126.80445066 192.65612438 -125.50806119 196.02952142 -123.70703125 199.3515625 C-122.07995683 202.91833699 -122.16973783 206.49048409 -122.8125 210.3125 C-124.46777891 212.51953854 -125.67946496 213.66511133 -127.8125 215.3125 C-138.64682342 224.28009878 -147.55651979 234.97805978 -149.03564453 249.50390625 C-150.13006029 266.16372735 -146.21142772 279.44566743 -135.5625 292.5 C-125.22914165 303.7665471 -113.31896602 307.55510494 -98.7265625 309.69921875 C-94.8125 310.3125 -94.8125 310.3125 -91.8125 311.3125 C-90.82974412 314.26076763 -90.67835275 316.23902504 -90.6875 319.3125 C-90.68363281 320.611875 -90.68363281 320.611875 -90.6796875 321.9375 C-90.8125 324.3125 -90.8125 324.3125 -91.8125 327.3125 C-103.56177963 331.22892654 -117.66758337 327.73707878 -128.3984375 322.59375 C-133.30217729 319.99311496 -138.06156467 317.18049582 -142.8125 314.3125 C-143.62854999 316.2276579 -144.44020632 318.14468834 -145.25 320.0625 C-145.70246094 321.12984375 -146.15492188 322.1971875 -146.62109375 323.296875 C-150.7384317 333.71846482 -150.21853544 347.21929429 -146.13671875 357.57421875 C-142.34664342 365.41151316 -137.79649131 371.82736521 -131.4140625 377.75390625 C-129.2780701 379.83259153 -128.82250957 380.81265647 -128.76245117 383.81176758 C-128.79314697 384.84970459 -128.82384277 385.8876416 -128.85546875 386.95703125 C-129.23758329 404.89497577 -128.69734969 417.43255163 -117.8125 432.3125 C-117.33941406 432.96992188 -116.86632812 433.62734375 -116.37890625 434.3046875 C-109.7171925 442.79695715 -99.33861829 449.0114805 -88.8125 451.3125 C-87.34630013 451.43172096 -85.87654006 451.51165951 -84.40625 451.55859375 C-83.57996094 451.59146484 -82.75367187 451.62433594 -81.90234375 451.65820312 C-80.17591512 451.7193963 -78.44934383 451.77668884 -76.72265625 451.83007812 C-75.89636719 451.86423828 -75.07007812 451.89839844 -74.21875 451.93359375 C-73.46916016 451.9586499 -72.71957031 451.98370605 -71.94726562 452.00952148 C-69.50969423 452.35547598 -67.89966659 453.0135291 -65.8125 454.3125 C-63.98828125 457 -63.98828125 457 -62.125 460.3125 C-53.29152417 475.32649357 -40.85757053 485.41946848 -24.08203125 490.42578125 C-9.54072797 493.87454845 6.11504284 491.76675708 18.875 484.125 C33.19086141 474.33103368 44.44588318 460.87987496 48.6796875 443.75 C51.19889149 426.69692683 49.70635418 409.50126552 39.1875 395.3125 C25.47550555 378.15957109 9.81304931 371.24622195 -11.625 368.7421875 C-14.8125 368.3125 -14.8125 368.3125 -17.8125 367.3125 C-18.79525588 364.36423237 -18.94664725 362.38597496 -18.9375 359.3125 C-18.94007813 358.44625 -18.94265625 357.58 -18.9453125 356.6875 C-18.8125 354.3125 -18.8125 354.3125 -17.8125 351.3125 C-3.56265583 346.56255194 13.71720797 351.77100012 26.625 358.125 C32.67650564 361.24222231 38.06349246 364.81103543 43.1875 369.3125 C44.39666248 370.35196274 45.60695504 371.39011174 46.81811523 372.42724609 C47.44894516 372.96755463 48.07977509 373.50786316 48.72972107 374.06454468 C49.21078812 374.47636993 49.69185516 374.88819519 50.1875 375.3125 C50.234233 350.80813545 50.26949524 326.30377759 50.29112434 301.79937744 C50.3014343 290.42141225 50.31548932 279.04347476 50.33837891 267.66552734 C50.35832131 257.7478302 50.37121848 247.83015312 50.37567699 237.91243649 C50.37828291 232.66172235 50.38440224 227.41106561 50.39896011 222.16036987 C50.41255741 217.21597001 50.41671828 212.27165106 50.41371536 207.32723427 C50.41426456 205.51485059 50.41822918 203.70246415 50.42591095 201.89009666 C50.43590583 199.4098683 50.4334524 196.92994286 50.42800903 194.44970703 C50.43383472 193.73762053 50.4396604 193.02553404 50.44566262 192.29186916 C50.39831009 184.27364561 48.81592632 177.21109078 43.1875 171.3125 C38.21699488 167.63432621 33.71860514 166.61533275 27.640625 165.70703125 C25.1875 165.3125 25.1875 165.3125 22.1875 164.3125 C21.20474412 161.36423237 21.05335275 159.38597496 21.0625 156.3125 C21.05992187 155.44625 21.05734375 154.58 21.0546875 153.6875 C21.1875 151.3125 21.1875 151.3125 22.1875 148.3125 C25.53444772 147.19685076 28.16145999 147.10930584 31.6875 147.0625 C33.40453125 147.02382812 33.40453125 147.02382812 35.15625 146.984375 C38.58263782 147.10172929 41.64499863 147.90425855 44.93945312 148.83300781 C45.92401489 149.1084845 46.90857666 149.38396118 47.92297363 149.66778564 C48.67026733 149.88054138 49.41756104 150.09329712 50.1875 150.3125 C50.23408148 140.49748666 50.26949926 130.68250012 50.29112434 120.86739826 C50.30150942 116.30861282 50.31557081 111.74990367 50.33837891 107.19116211 C50.36029726 102.78207347 50.37210817 98.37305766 50.37725449 93.96391869 C50.38091647 92.29162641 50.38806611 90.61933759 50.39896011 88.9470768 C50.52854687 68.20814859 48.01478619 51.59086583 34.1875 35.3125 C23.1383046 24.99843252 11.39143567 20.76710937 -3.4140625 21.04296875 C-17.07326769 21.6382497 -27.1447998 29.38165674 -36.5703125 38.671875 Z M90.1875 32.3125 C89.341875 32.89 88.49625 33.4675 87.625 34.0625 C83.7640105 37.62649031 81.04508963 41.92722523 78.1875 46.3125 C77.57841797 47.23095703 77.57841797 47.23095703 76.95703125 48.16796875 C68.95185066 61.08053975 70.04278906 76.54559158 70.08984375 91.1328125 C70.09171215 92.84487873 70.09313406 94.55694549 70.09413147 96.26901245 C70.0979234 100.7438305 70.10772476 105.21861535 70.11883545 109.69342041 C70.12912157 114.27217154 70.13364442 118.85092811 70.13867188 123.4296875 C70.14935047 132.39063947 70.16638627 141.35156696 70.1875 150.3125 C70.9347937 150.09974426 71.6820874 149.88698853 72.45202637 149.66778564 C73.43658813 149.39230896 74.4211499 149.11683228 75.43554688 148.83300781 C76.40971558 148.55837708 77.38388428 148.28374634 78.38757324 148.00079346 C81.97497653 147.11891817 84.99578077 146.97935317 88.6875 147.0625 C89.8528125 147.07796875 91.018125 147.0934375 92.21875 147.109375 C95.1875 147.3125 95.1875 147.3125 98.1875 148.3125 C99.17025588 151.26076763 99.32164725 153.23902504 99.3125 156.3125 C99.31636719 157.611875 99.31636719 157.611875 99.3203125 158.9375 C99.1875 161.3125 99.1875 161.3125 98.1875 164.3125 C95.62596208 165.07081076 93.17160177 165.66134078 90.5625 166.1875 C82.85910017 167.94035419 77.25896627 169.69162348 72.8125 176.75 C70.19401913 182.49051576 70.04197379 187.98062003 70.06724548 194.209198 C70.06639106 194.98611594 70.06553663 195.76303389 70.06465632 196.5634948 C70.06301426 199.15677419 70.06850198 201.74998833 70.07397461 204.34326172 C70.07425678 206.206192 70.07409816 208.06912239 70.0735321 209.93205261 C70.0732453 214.98319887 70.07912313 220.03432136 70.08610606 225.08546209 C70.09235908 230.36655399 70.09294494 235.64764643 70.09413147 240.92874146 C70.09723903 250.92647446 70.10544469 260.92419652 70.11548096 270.92192471 C70.12665993 282.30515897 70.13215705 293.68839376 70.13717639 305.07163215 C70.14762776 328.48526083 70.1652161 351.8988798 70.1875 375.3125 C71.31076616 374.35090977 72.43386167 373.38912019 73.55688477 372.42724609 C74.18232681 371.89167084 74.80776886 371.35609558 75.4521637 370.80429077 C76.73373703 369.70257967 78.00767511 368.59197233 79.27734375 367.4765625 C95.25983607 354.16345051 114.70140299 348.89726567 135.1875 350.3125 C136.1775 350.6425 137.1675 350.9725 138.1875 351.3125 C139.17025588 354.26076763 139.32164725 356.23902504 139.3125 359.3125 C139.31636719 360.611875 139.31636719 360.611875 139.3203125 361.9375 C139.1875 364.3125 139.1875 364.3125 138.1875 367.3125 C133.18394749 369.01370785 128.241008 369.53965474 123 370.125 C107.0089189 372.20526974 93.49305887 379.85731535 83.1875 392.3125 C72.26770088 407.19949219 69.4459969 422.23753096 71.1875 440.3125 C72.05202464 444.90788767 73.34584752 449.02132936 75.1875 453.3125 C75.56132812 454.20066406 75.93515625 455.08882813 76.3203125 456.00390625 C83.09732266 470.70238855 95.30069415 482.02031598 110.00390625 488.56640625 C123.69778969 493.58574794 139.84121149 493.09710059 153.1875 487.3125 C154.115625 486.91160156 155.04375 486.51070313 156 486.09765625 C169.19638356 479.63067851 177.832798 469.37992338 184.62109375 456.6171875 C186.36877093 454.04579215 187.35416656 453.45658315 190.1875 452.3125 C192.21118164 452.05712891 192.21118164 452.05712891 194.34765625 452.0390625 C195.1360791 452.02141846 195.92450195 452.00377441 196.73681641 451.9855957 C197.56616699 451.96972412 198.39551758 451.95385254 199.25 451.9375 C211.10018217 451.4929222 219.67422391 448.46561218 229.1875 441.3125 C229.78046875 440.90773438 230.3734375 440.50296875 230.984375 440.0859375 C235.16329354 436.96133327 238.01090431 433.00242449 240.875 428.6875 C241.24367188 428.14416016 241.61234375 427.60082031 241.9921875 427.04101562 C249.27882981 415.55863524 249.60255498 404.60210986 248.76757812 391.3828125 C248.42329003 381.34927375 248.42329003 381.34927375 252.4375 376.7890625 C253.67147845 375.61316278 254.92023178 374.45244484 256.1875 373.3125 C267.02604046 359.9074227 270.64567011 347.38863428 269.1875 330.3125 C267.89883735 324.25195783 266.11145414 319.1471713 262.1875 314.3125 C261.48625 314.77140625 260.785 315.2303125 260.0625 315.703125 C245.37969712 325.19906817 232.77354469 329.3721458 215.1875 328.3125 C214.1975 327.9825 213.2075 327.6525 212.1875 327.3125 C211.20474412 324.36423237 211.05335275 322.38597496 211.0625 319.3125 C211.05992187 318.44625 211.05734375 317.58 211.0546875 316.6875 C211.1875 314.3125 211.1875 314.3125 212.1875 311.3125 C215.84995676 310.11515837 219.28792807 309.4108532 223.1171875 308.9921875 C237.23122515 307.37028097 249.1509478 300.97502841 258.1484375 289.8984375 C267.80596645 276.73648877 270.53725305 263.37490645 269.1875 247.3125 C266.35229323 232.01596528 256.52116347 220.94606443 244.1875 212.3125 C242.42156818 208.78063636 242.67690192 205.12825981 243.1875 201.3125 C244.2950016 198.11793763 245.58647045 195.08397465 246.99609375 192.01171875 C251.11702 182.67545633 250.57922478 169.40741809 247.625 159.8125 C242.07053354 145.71878262 232.15097168 133.76626202 218.3125 127.375 C207.72659865 122.82275379 194.90753787 122.47073351 184.0625 126.4375 C178.84695708 128.75624893 174.5171594 131.62657892 170.1875 135.3125 C169.341875 135.89 168.49625 136.4675 167.625 137.0625 C163.7640105 140.62649031 161.04508963 144.92722523 158.1875 149.3125 C157.57841797 150.23095703 157.57841797 150.23095703 156.95703125 151.16796875 C151.84344506 159.41632043 150.71303123 168.64059473 149.6171875 178.08984375 C149.1875 181.3125 149.1875 181.3125 148.1875 184.3125 C145.23923237 185.29525588 143.26097496 185.44664725 140.1875 185.4375 C139.32125 185.44007813 138.455 185.44265625 137.5625 185.4453125 C135.1875 185.3125 135.1875 185.3125 132.1875 184.3125 C127.64399455 170.68198366 132.5904273 154.42534259 138.375 142.0625 C147.7058317 124.43538511 162.48301019 111.98873491 181.49609375 106.0390625 C185.6919969 104.90635135 189.70718642 104.1922561 194.05078125 103.99609375 C194.93701172 103.95419922 195.82324219 103.91230469 196.73632812 103.86914062 C197.64833984 103.82982422 198.56035156 103.79050781 199.5 103.75 C200.89702148 103.68522461 200.89702148 103.68522461 202.32226562 103.61914062 C204.61054454 103.51352775 206.89892372 103.41142248 209.1875 103.3125 C209.45849119 93.15575023 206.78319884 85.23937506 200.16015625 77.37890625 C192.29896012 69.14410872 183.79788416 64.35974029 172.26855469 63.84155273 C160.11257961 63.67184825 151.94648752 67.22484681 142.40234375 74.60546875 C138.55894953 77.56766147 136.04774417 77.7243851 131.1875 77.3125 C128.25028158 75.78003822 126.67115169 74.64183506 125.51953125 71.4765625 C124.82141043 67.86845292 125.01080916 65.73655802 126.4375 62.3125 C134.2107104 52.5091728 147.23144571 46.79394523 159.1875 44.3125 C155.85189672 34.72056618 146.82485448 28.92396892 138.1875 24.3125 C122.05496339 16.67931993 103.28263481 21.16436365 90.1875 32.3125 Z " fill="#000000" transform="translate(195.8125,-0.3125)"/>
<path d="M0 0 C0.825 -0.01289063 1.65 -0.02578125 2.5 -0.0390625 C6.21997646 0.94905625 7.69505724 2.57600555 10 5.625 C10.52190864 8.46172695 10.71776992 10.55537621 10.625 13.375 C10.60288452 14.48621216 10.60288452 14.48621216 10.58032227 15.61987305 C9.70992859 35.78789476 -0.3265335 51.78825741 -14.8125 65.3125 C-24.48474738 73.38854152 -35.05177797 77.33469013 -47 80.625 C-42.86478784 89.02350611 -38.28452086 94.07487414 -29.5703125 97.796875 C-26.63511408 98.74256203 -23.80514172 99.1571495 -20.75 99.5625 C-16.97387446 100.13566191 -15.05975183 100.58822964 -11.75 102.625 C-9.60890633 106.29544629 -9.40133961 108.939265 -9.3359375 113.125 C-10.31759187 116.82063997 -11.98985264 118.31978621 -15 120.625 C-27.70037523 123.01095147 -39.94553167 118.75427534 -50.3984375 111.66015625 C-59.33226396 104.6713821 -66.72242031 95.14598994 -68.65625 83.76171875 C-68.7696875 82.72660156 -68.883125 81.69148438 -69 80.625 C-69.89460938 80.45484375 -70.78921875 80.2846875 -71.7109375 80.109375 C-85.676943 77.31021825 -98.34299634 72.79162121 -108.34765625 62.12109375 C-110.55129509 58.79219252 -110.63990304 56.67306071 -110.4453125 52.78125 C-109.69011377 49.12449825 -108.02182284 47.68241129 -105 45.625 C-101.1127022 44.49414973 -98.93341059 44.28004391 -95.125 45.6875 C-92.60507921 47.24985089 -90.18694203 48.87801727 -87.75 50.5625 C-76.12910797 58.46706615 -63.73506694 59.97773851 -50 58.625 C-43.10653801 57.18491628 -36.50706425 53.97942289 -31 49.625 C-30.36707031 49.13386719 -29.73414063 48.64273438 -29.08203125 48.13671875 C-18.71262963 39.67388628 -12.71006019 27.89220332 -11.19042969 14.60986328 C-11.00931136 12.722053 -10.87828035 10.82963521 -10.75 8.9375 C-9.43999316 3.15163644 -5.99942279 -0.09374098 0 0 Z " fill="#000000" transform="translate(396,165.375)"/>
<path d="M0 0 C0.825 -0.01289063 1.65 -0.02578125 2.5 -0.0390625 C6.26314158 0.96052198 7.66739038 2.52282857 10 5.625 C10.90818327 8.6723948 11.23510079 11.71883479 11.5625 14.875 C12.46230656 21.70578961 13.38697242 27.64015499 17 33.625 C17.42023438 34.36621094 17.84046875 35.10742188 18.2734375 35.87109375 C25.0909651 47.03903262 35.08578019 53.5485967 47.31640625 57.76953125 C51.57063702 58.75752334 55.46246556 58.96929917 59.8125 58.9375 C60.60712646 58.93258545 61.40175293 58.9276709 62.22045898 58.92260742 C73.59138784 58.6960023 82.65516322 54.78716821 91.625 47.875 C95.00798326 45.40612538 97.74167629 44.625 102 44.625 C106.01519063 46.14016628 107.60368353 47.0305253 110 50.625 C110.37109375 52.67578125 110.37109375 52.67578125 110.4375 54.9375 C110.49744141 56.04544922 110.49744141 56.04544922 110.55859375 57.17578125 C109.17442841 63.24481389 103.62407603 67.0237615 98.625 70.1875 C97.72285767 70.76274414 97.72285767 70.76274414 96.80249023 71.34960938 C88.25340356 76.56443092 78.92966613 79.40756967 69 80.625 C68.95875 81.5325 68.9175 82.44 68.875 83.375 C67.16671061 94.80207091 59.25565605 104.73131111 50.3984375 111.66015625 C39.94553167 118.75427534 27.70037523 123.01095147 15 120.625 C11.98985264 118.31978621 10.31759187 116.82063997 9.3359375 113.125 C9.35527344 111.8875 9.35527344 111.8875 9.375 110.625 C9.36210938 109.8 9.34921875 108.975 9.3359375 108.125 C10.31556107 104.43700537 12.01924147 102.95846244 15 100.625 C18.453125 99.65625 18.453125 99.65625 22.25 99.125 C32.58087965 97.38229093 38.44355235 94.18073687 44.6875 85.7109375 C46.15079341 83.56858512 46.15079341 83.56858512 47 80.625 C45.47632813 80.20541016 45.47632813 80.20541016 43.921875 79.77734375 C23.45433282 73.91520798 7.11406172 61.89019329 -3.35546875 43.078125 C-7.87569018 33.58673369 -10.41544239 23.90441115 -10.625 13.375 C-10.64812256 12.67221924 -10.67124512 11.96943848 -10.69506836 11.24536133 C-10.63697311 7.47740441 -10.06210348 5.70715093 -7.7734375 2.6796875 C-4.83744106 0.50456901 -3.59288397 -0.05613881 0 0 Z " fill="#000000" transform="translate(116,165.375)"/>
<path d="M0 0 C1.04800781 -0.05607422 1.04800781 -0.05607422 2.1171875 -0.11328125 C6.0080351 -0.17935225 7.81539533 0.23715536 10.9609375 2.5859375 C13.1128366 5.52933972 13.68103041 6.78905404 13.625 10.375 C13.64433594 11.6125 13.64433594 11.6125 13.6640625 12.875 C12.67216221 16.60921285 11.05872653 18.04796884 8 20.375 C5.22056528 21.20868543 2.44364849 21.46868189 -0.4375 21.75 C-13.04395261 23.41606796 -24.84146443 28.45312305 -32.828125 38.7265625 C-34.63016373 41.23275923 -36.3332774 43.77724033 -38 46.375 C-38.40347656 46.98472656 -38.80695313 47.59445312 -39.22265625 48.22265625 C-44.3483673 56.4666706 -45.41393521 65.48330101 -46.1796875 74.95703125 C-47.19267375 79.17780729 -48.57138689 80.76202562 -52 83.375 C-54.5 84.0390625 -54.5 84.0390625 -57 84 C-58.2375 84.01933594 -58.2375 84.01933594 -59.5 84.0390625 C-63.22566257 83.04943338 -64.69733923 81.43442275 -67 78.375 C-67.49067503 75.50409394 -67.67070479 73.34917742 -67.5625 70.5 C-67.53651733 69.37887817 -67.53651733 69.37887817 -67.51000977 68.23510742 C-66.66095586 47.79948171 -56.78080066 30.49331297 -42.1875 16.625 C-30.16105192 6.23429756 -15.89566647 0.32260578 0 0 Z " fill="#000000" transform="translate(393,388.625)"/>
<path d="M0 0 C19.2076531 4.11038606 34.67322397 16.79522247 45.46484375 32.80859375 C49.11193984 38.75385998 51.60181223 44.9470175 53.77734375 51.55859375 C54.02484375 52.29335938 54.27234375 53.028125 54.52734375 53.78515625 C55.93773815 58.85865832 56.07037268 64.07220953 56.21484375 69.30859375 C56.24940674 70.04239258 56.28396973 70.77619141 56.31958008 71.53222656 C56.34966985 75.46096333 55.92819832 77.35585798 53.5625 80.53515625 C50.62263356 82.6709919 49.35263089 83.23945761 45.77734375 83.18359375 C44.53984375 83.20292969 44.53984375 83.20292969 43.27734375 83.22265625 C39.58930992 82.24302226 38.09812446 80.54705141 35.77734375 77.55859375 C34.9921875 74.2109375 34.9921875 74.2109375 34.71484375 70.49609375 C33.32968718 56.6951428 28.45114788 43.89817236 17.77734375 34.55859375 C17.30167969 34.09195313 16.82601562 33.6253125 16.3359375 33.14453125 C7.89447916 25.2115945 -1.67169578 21.9100947 -12.99145508 20.7590332 C-17.00549926 20.27812229 -18.90932165 19.79676072 -22.21875 17.28125 C-24.35568524 14.37785066 -24.90313776 13.1094102 -24.84765625 9.55859375 C-24.86054687 8.73359375 -24.8734375 7.90859375 -24.88671875 7.05859375 C-21.94258134 -4.02521768 -8.79400598 -1.20451233 0 0 Z " fill="#000000" transform="translate(130.22265625,389.44140625)"/>
<path d="M0 0 C1.25985718 0.02380737 1.25985718 0.02380737 2.54516602 0.0480957 C24.97921596 0.85394396 46.25020216 12.11441499 62.125 27.5625 C65.0623575 30.735423 67.65715416 34.01462185 70.125 37.5625 C71.02412109 38.85027344 71.02412109 38.85027344 71.94140625 40.1640625 C75.12167869 45.0488429 77.08618302 48.55510614 76.125 54.5625 C75.23689676 57.46901969 74.32277062 58.4042835 71.9375 60.3125 C68.31003256 61.92470775 66.06251167 62.11513322 62.125 61.5625 C57.03118823 58.37886764 54.13606862 54.02044347 50.8359375 49.0625 C41.70588777 35.72178806 27.20086627 27.14396657 11.625 23.25 C8.82086587 22.72830063 6.04629914 22.45935729 3.203125 22.1875 C2.49220703 22.11442627 1.78128906 22.04135254 1.04882812 21.96606445 C-0.36711931 21.82532844 -1.78536085 21.70558841 -3.20507812 21.61010742 C-6.91581265 21.25327115 -8.84079824 20.58876369 -11.8203125 18.30078125 C-14.00843508 15.38467112 -14.5560336 14.14865011 -14.5 10.5625 C-14.51289063 9.7375 -14.52578125 8.9125 -14.5390625 8.0625 C-12.49510852 0.36761441 -6.82300818 -0.22718345 0 0 Z " fill="#000000" transform="translate(319.875,308.4375)"/>
<path d="M0 0 C0.82371094 -0.03287109 1.64742188 -0.06574219 2.49609375 -0.09960938 C6.81321518 -0.13784475 8.70424287 0.03975669 12.2890625 2.65234375 C14.35485299 5.58642467 14.9302443 6.90186482 14.875 10.4375 C14.89433594 11.675 14.89433594 11.675 14.9140625 12.9375 C13.90671856 16.72985364 12.39997766 18.1059576 9.25 20.4375 C5.97296251 21.34110036 2.6911116 21.63090055 -0.6875 21.9375 C-13.71659777 23.46775939 -24.82636767 26.90779758 -35.75 34.4375 C-36.90435547 35.22253906 -36.90435547 35.22253906 -38.08203125 36.0234375 C-44.86397904 40.94525992 -49.54867053 47.08456106 -54.4765625 53.78515625 C-54.99992187 54.49542969 -55.52328125 55.20570313 -56.0625 55.9375 C-56.51238281 56.5665625 -56.96226562 57.195625 -57.42578125 57.84375 C-59.78162161 60.67909769 -61.4824119 61.41272332 -65.125 61.75 C-68.98295483 61.41741769 -70.75197922 60.83591663 -73.75 58.4375 C-76.33252925 54.99412766 -76.07724538 51.61849031 -75.75 47.4375 C-74.48574299 44.89465201 -73.28872838 42.79924083 -71.6875 40.5 C-71.27483887 39.88809814 -70.86217773 39.27619629 -70.43701172 38.64575195 C-56.80086225 18.74056358 -35.61723261 5.75958114 -12.0949707 0.82128906 C-8.06291561 0.16138374 -4.07934559 0.0292776 0 0 Z " fill="#000000" transform="translate(191.75,308.5625)"/>
<path d="M0 0 C3.125 1.875 3.125 1.875 5 5 C5.98876625 10.02622846 5.7769173 13.70513784 3.125 18.125 C-1.29486216 20.7769173 -4.97377154 20.98876625 -10 20 C-13.125 18.125 -13.125 18.125 -15 15 C-15.98876625 9.97377154 -15.7769173 6.29486216 -13.125 1.875 C-8.70513784 -0.7769173 -5.02622846 -0.98876625 0 0 Z " fill="#000000" transform="translate(311,83)"/>
<path d="M0 0 C3.125 1.875 3.125 1.875 5 5 C5.98876625 10.02622846 5.7769173 13.70513784 3.125 18.125 C-1.29486216 20.7769173 -4.97377154 20.98876625 -10 20 C-13.125 18.125 -13.125 18.125 -15 15 C-15.98876625 9.97377154 -15.7769173 6.29486216 -13.125 1.875 C-8.70513784 -0.7769173 -5.02622846 -0.98876625 0 0 Z " fill="#000000" transform="translate(211,83)"/>
</svg>
